<?xml version="1.0" encoding="UTF-8" standalone="no"?>
<!-- Created with Inkscape (http://www.inkscape.org/) -->

<svg
   width="16"
   height="16"
   viewBox="0 0 16 16"
   version="1.1"
   id="svg1"
   inkscape:version="1.4 (e7c3feb100, 2024-10-09)"
   sodipodi:docname="green-clak.svg"
   xmlns:inkscape="http://www.inkscape.org/namespaces/inkscape"
   xmlns:sodipodi="http://sodipodi.sourceforge.net/DTD/sodipodi-0.dtd"
   xmlns="http://www.w3.org/2000/svg"
   xmlns:svg="http://www.w3.org/2000/svg">
  <sodipodi:namedview
     id="namedview1"
     pagecolor="#ffffff"
     bordercolor="#000000"
     borderopacity="0.25"
     inkscape:showpageshadow="2"
     inkscape:pageopacity="0.0"
     inkscape:pagecheckerboard="0"
     inkscape:deskcolor="#d1d1d1"
     inkscape:document-units="px"
     inkscape:zoom="52.75"
     inkscape:cx="8"
     inkscape:cy="7.3744076"
     inkscape:window-width="1920"
     inkscape:window-height="1053"
     inkscape:window-x="1368"
     inkscape:window-y="0"
     inkscape:window-maximized="1"
     inkscape:current-layer="layer1" />
  <defs
     id="defs1" />
  <g
     inkscape:label="Layer 1"
     inkscape:groupmode="layer"
     id="layer1">
    <path
       style="font-size:8px;font-family:Sans;-inkscape-font-specification:'Sans, Normal';fill:#0cb600;fill-opacity:1;stroke:none;stroke-width:1.245;stroke-opacity:1"
       d="m 3.0348491,3.261161 c -0.4561554,0 -0.8151295,0.427938 -1.0769231,1.2838133 C 1.6961326,5.4008496 1.5652358,6.57351 1.5652358,8.0629554 c 0,1.4783303 0.1209799,2.6509896 0.362941,3.5179796 0.2459272,0.855877 0.6128346,1.283813 1.1007224,1.283813 0.1864286,0 0.362941,-0.04445 0.5295368,-0.133383 0.1665958,-0.08893 0.329225,-0.200074 0.4878878,-0.333457 v 1.300486 c -0.1586628,0.166728 -0.2900999,0.245497 -0.4606623,0.323304 -0.1665959,0.0778 -0.7318364,0.0152 -0.9658639,0.0152 -0.4323558,0 -0.4615598,-0.105094 -0.7511193,-0.605281 C 1.5791188,12.93144 1.3609577,12.220064 1.2141946,11.297496 1.0713982,10.374928 0.99999999,9.2911929 0.99999999,8.0462821 c 0,-1.2004486 0.0773481,-2.2563985 0.23204421,-3.1678502 C 1.3907069,3.955865 1.6227512,3.2389302 1.9281768,2.7276282 2.2336025,2.2052111 2.7040027,2.0890009 3.140325,2.0890009 c 0.4482221,0 0.7394029,0.088422 1.0725946,0.5552633 L 3.9987249,3.9114043 C 3.8678283,3.7446748 3.7210652,3.5946192 3.558436,3.4612355 3.3997732,3.3278525 3.2252443,3.261161 3.0348491,3.261161 Z M 4.9745004,14.015179 V 2.1107314 H 5.509987 V 12.681346 h 1.8563535 v 1.333833 z m 5.7832566,0 -0.511687,-3.684711 H 8.5622615 L 8.0565241,14.015179 H 7.5150877 L 9.1750962,2.0607124 H 9.6570339 L 11.311093,14.015179 Z M 9.6094347,5.3952914 c -0.0119,-0.088922 -0.031736,-0.2500928 -0.0595,-0.4835138 -0.027764,-0.2334203 -0.055536,-0.4723987 -0.0833,-0.7169341 -0.0238,-0.2556517 -0.043636,-0.4501687 -0.0595,-0.5835517 -0.027764,0.3445732 -0.059498,0.683589 -0.095197,1.0170465 -0.035699,0.3223426 -0.065448,0.5779936 -0.089248,0.7669531 L 8.7407518,8.9966371 H 10.085418 Z M 15,14.015179 H 14.369316 L 12.864003,8.3297214 12.429664,9.3967862 V 14.015179 H 11.894178 V 2.1107314 h 0.535486 v 5.8688592 c 0.118997,-0.377919 0.239978,-0.7558381 0.362941,-1.1337571 l 0.368891,-1.1337563 1.148321,-3.6013458 h 0.624735 l -1.683808,5.1852709 z"
       id="text1"
       aria-label="CLAK"
       sodipodi:nodetypes="ssscsscccsscsccscccscccccccccccccccccsccccccccccccccccsccccc" />
  </g>
</svg>
