<?xml version="1.0" encoding="UTF-8" standalone="no"?>
<!-- Created with Inkscape (http://www.inkscape.org/) -->

<svg
   width="16"
   height="16"
   viewBox="0 0 16 16"
   version="1.1"
   id="svg1"
   inkscape:version="1.4 (e7c3feb100, 2024-10-09)"
   sodipodi:docname="red-clak.svg"
   xmlns:inkscape="http://www.inkscape.org/namespaces/inkscape"
   xmlns:sodipodi="http://sodipodi.sourceforge.net/DTD/sodipodi-0.dtd"
   xmlns="http://www.w3.org/2000/svg"
   xmlns:svg="http://www.w3.org/2000/svg">
  <sodipodi:namedview
     id="namedview1"
     pagecolor="#ffffff"
     bordercolor="#000000"
     borderopacity="0.25"
     inkscape:showpageshadow="2"
     inkscape:pageopacity="0.0"
     inkscape:pagecheckerboard="0"
     inkscape:deskcolor="#d1d1d1"
     inkscape:document-units="px"
     inkscape:zoom="52.75"
     inkscape:cx="11.535545"
     inkscape:cy="5.8009479"
     inkscape:window-width="946"
     inkscape:window-height="1037"
     inkscape:window-x="1374"
     inkscape:window-y="6"
     inkscape:window-maximized="0"
     inkscape:current-layer="layer1" />
  <defs
     id="defs1" />
  <g
     inkscape:label="Layer 1"
     inkscape:groupmode="layer"
     id="layer1">
    <path
       style="font-size:8px;font-family:Sans;-inkscape-font-specification:'Sans, Normal';fill:#b60000;fill-opacity:1;stroke:none;stroke-width:0.880348;stroke-opacity:1"
       d="m 3.0348491,8.6612243 c -0.4561554,0 -0.8151295,0.213969 -1.0769231,0.641907 -0.2617934,0.427937 -0.3926902,1.0142677 -0.3926902,1.7589897 0,0.739165 0.1209799,1.325495 0.362941,1.75899 0.2459272,0.427939 0.6128346,0.641907 1.1007224,0.641907 0.1864286,0 0.362941,-0.02223 0.5295368,-0.06669 0.1665958,-0.04447 0.329225,-0.100037 0.4878878,-0.166728 v 0.650243 c -0.1586628,0.08336 -0.2900999,0.122748 -0.4606623,0.161652 -0.1665959,0.0389 -0.7318364,0.0076 -0.9658639,0.0076 -0.4323558,0 -0.4615598,-0.05255 -0.7511193,-0.302641 C 1.5791188,13.496364 1.3609577,13.140676 1.2141946,12.679392 1.0713982,12.218107 0.99999999,11.67624 0.99999999,11.053785 c 0,-0.600225 0.0773481,-1.1281997 0.23204421,-1.5839247 C 1.3907069,9.0085763 1.6227512,8.6501089 1.9281768,8.3944579 2.2336025,8.1332494 2.7040027,8.0751443 3.140325,8.0751443 c 0.4482221,0 0.7394029,0.044211 1.0725946,0.2776316 L 3.9987249,8.986346 C 3.8678283,8.9029812 3.7210652,8.8279534 3.558436,8.7612616 3.3997732,8.6945701 3.2252443,8.6612243 3.0348491,8.6612243 Z M 4.9745004,14.038233 V 8.0860095 H 5.509987 v 5.2853075 h 1.8563535 v 0.666916 z m 5.7832566,0 -0.511687,-1.842355 H 8.5622615 L 8.0565241,14.038233 H 7.5150877 L 9.1750962,8.061 h 0.4819377 l 1.6540591,5.977233 z M 9.6094347,9.7282893 c -0.0119,-0.04446 -0.031736,-0.125046 -0.0595,-0.241757 -0.027764,-0.11671 -0.055536,-0.236199 -0.0833,-0.358467 -0.0238,-0.1278256 -0.043636,-0.2250841 -0.0595,-0.2917756 -0.027764,0.1722866 -0.059498,0.3417946 -0.095197,0.5085236 -0.035699,0.161171 -0.065448,0.288997 -0.089248,0.383476 L 8.7407518,11.528962 H 10.085418 Z M 15,14.038233 h -0.630684 l -1.505313,-2.842729 -0.434339,0.533533 v 2.309196 H 11.894178 V 8.0860095 h 0.535486 v 2.9344295 c 0.118997,-0.18896 0.239978,-0.377919 0.362941,-0.566879 l 0.368891,-0.5668777 1.148321,-1.8006728 h 0.624735 l -1.683808,2.5926355 z"
       id="text1"
       aria-label="CLAK"
       sodipodi:nodetypes="ssscsscccsscsccscccscccccccccccccccccsccccccccccccccccsccccc" />
    <text
       xml:space="preserve"
       style="font-size:12.2449px;text-align:start;writing-mode:lr-tb;direction:ltr;text-anchor:start;fill:#b60000;stroke-width:1.02041;-inkscape-stroke:none"
       x="1.5632606"
       y="7.8614955"
       id="text2"><tspan
         sodipodi:role="line"
         id="tspan1"
         x="1.5632606"
         y="7.8614955"
         style="font-style:normal;font-variant:normal;font-weight:normal;font-stretch:normal;font-size:8.16327px;font-family:Sans;-inkscape-font-specification:'Sans, Normal';font-variant-ligatures:normal;font-variant-caps:normal;font-variant-numeric:normal;font-variant-east-asian:normal;stroke-width:1.02041">NO</tspan></text>
  </g>
</svg>
